HIERARCHY
ROOT hips
{
  OFFSET 0 10.6860622 2.3727825e-15
  CHANNELS 6 Xposition Yposition Zposition Yrotation Xrotation Zrotation
  JOINT leftUpperLeg
  {
    OFFSET 0.6642549969 -0.9402397400000004 0
    CHANNELS 3 Yrotation Xrotation Zrotation
    JOINT leftLowerLeg
    {
      OFFSET 0 -3.997221335632195 0
      CHANNELS 3 Yrotation Xrotation Zrotation
      JOINT leftFoot
      {
        OFFSET -0.13777839790000004 -4.6145792000000005 -0.22186036399999998
        CHANNELS 3 Yrotation Xrotation Zrotation
        JOINT leftToes
        {
          OFFSET -0.03777410834999995 -0.9130806927000008 0.85230013
          CHANNELS 3 Yrotation Xrotation Zrotation
          End Site
          {
            OFFSET -0.03777410834999995 -0.9130806927000008 0.85230013
          }
        }
      }
    }
  }
  JOINT rightUpperLeg
  {
    OFFSET -0.6642778626 -0.9402397400000004 0
    CHANNELS 3 Yrotation Xrotation Zrotation
    JOINT rightLowerLeg
    {
      OFFSET 0 -3.997221452859387 0
      CHANNELS 3 Yrotation Xrotation Zrotation
      JOINT rightFoot
      {
        OFFSET 0.1377926176 -4.6145792000000005 -0.22185782299999995
        CHANNELS 3 Yrotation Xrotation Zrotation
        JOINT rightToes
        {
          OFFSET 0.037780746850000047 -0.9130806927000008 0.85230167
          CHANNELS 3 Yrotation Xrotation Zrotation
          End Site
          {
            OFFSET 0.037780746850000047 -0.9130806927000008 0.85230167
          }
        }
      }
    }
  }
  JOINT spine
  {
    OFFSET 0 0.13988381660000015 0
    CHANNELS 3 Yrotation Xrotation Zrotation
    JOINT chest
    {
      OFFSET 0 0.6191039003973773 0
      CHANNELS 3 Yrotation Xrotation Zrotation
      JOINT upperChest
      {
        OFFSET 0 0.9855186130586943 0
        CHANNELS 3 Yrotation Xrotation Zrotation
        JOINT leftShoulder
        {
          OFFSET 0.1807663869 1.5087829790000005 0
          CHANNELS 3 Yrotation Xrotation Zrotation
          JOINT leftUpperArm
          {
            OFFSET 0.5985063006419806 0 0
            CHANNELS 3 Yrotation Xrotation Zrotation
            JOINT leftLowerArm
            {
              OFFSET 2.2993332369501065 0 0
              CHANNELS 3 Yrotation Xrotation Zrotation
              JOINT leftHand
              {
                OFFSET 2.395047042602395 0 0
                CHANNELS 3 Yrotation Xrotation Zrotation
                JOINT leftIndexProximal
                {
                  OFFSET 0.5766295810000004 0.04556643899499946 0.17265095988184
                  CHANNELS 3 Yrotation Xrotation Zrotation
                  JOINT leftIndexIntermediate
                  {
                    OFFSET 0.2957229000000008 -0.019352197700001517 -0.007932640616999987
                    CHANNELS 3 Yrotation Xrotation Zrotation
                    JOINT leftIndexDistal
                    {
                      OFFSET 0.19008243099999922 -0.012484908149998475 -0.002786250786000012
                      CHANNELS 3 Yrotation Xrotation Zrotation
                      End Site
                      {
                        OFFSET 0.19008243099999922 -0.012484908149998475 -0.002786250786000012
                      }
                    }
                  }
                }
                JOINT leftMiddleProximal
                {
                  OFFSET 0.5834975091000001 0.0524350405149987 0.02204081888183999
                  CHANNELS 3 Yrotation Xrotation Zrotation
                  JOINT leftMiddleIntermediate
                  {
                    OFFSET 0.33880573540000003 -0.019871473270000717 -0.00000971183179999946
                    CHANNELS 3 Yrotation Xrotation Zrotation
                    JOINT leftMiddleDistal
                    {
                      OFFSET 0.20676022730000088 -0.012221336379999448 0.0001471936708000235
                      CHANNELS 3 Yrotation Xrotation Zrotation
                      End Site
                      {
                        OFFSET 0.20676022730000088 -0.012221336379999448 0.0001471936708000235
                      }
                    }
                  }
                }
                JOINT leftLittleProximal
                {
                  OFFSET 0.5344154683999995 -0.012880921405001189 -0.24414037221816004
                  CHANNELS 3 Yrotation Xrotation Zrotation
                  JOINT leftLittleIntermediate
                  {
                    OFFSET 0.21758961730000093 -0.011650919939999227 0.011893592810000034
                    CHANNELS 3 Yrotation Xrotation Zrotation
                    JOINT leftLittleDistal
                    {
                      OFFSET 0.1475273964999999 -0.008152365682999818 0.006001092492999946
                      CHANNELS 3 Yrotation Xrotation Zrotation
                      End Site
                      {
                        OFFSET 0.1475273964999999 -0.008152365682999818 0.006001092492999946
                      }
                    }
                  }
                }
                JOINT leftRingProximal
                {
                  OFFSET 0.5799399463000003 0.026911854694997794 -0.12150566991816003
                  CHANNELS 3 Yrotation Xrotation Zrotation
                  JOINT leftRingIntermediate
                  {
                    OFFSET 0.26167887460000006 -0.013480186499999602 0.010996293000000053
                    CHANNELS 3 Yrotation Xrotation Zrotation
                    JOINT leftRingDistal
                    {
                      OFFSET 0.17667108799999987 -0.008990287899999228 0.0055541023999999065
                      CHANNELS 3 Yrotation Xrotation Zrotation
                      End Site
                      {
                        OFFSET 0.17667108799999987 -0.008990287899999228 0.0055541023999999065
                      }
                    }
                  }
                }
                JOINT leftThumbProximal
                {
                  OFFSET 0.11018806699999972 -0.09448718900500053 0.17047963138184
                  CHANNELS 3 Yrotation Xrotation Zrotation
                  JOINT leftThumbIntermediate
                  {
                    OFFSET 0.31062601459999983 -0.08126270900000132 0.15443142000000007
                    CHANNELS 3 Yrotation Xrotation Zrotation
                    JOINT leftThumbDistal
                    {
                      OFFSET 0.21627175790000086 -0.08833193599999878 0.018771167799999988
                      CHANNELS 3 Yrotation Xrotation Zrotation
                      End Site
                      {
                        OFFSET 0.21627175790000086 -0.08833193599999878 0.018771167799999988
                      }
                    }
                  }
                }
              }
            }
          }
        }
        JOINT neck
        {
          OFFSET 0 1.5463305265074576 0
          CHANNELS 3 Yrotation Xrotation Zrotation
          JOINT head
          {
            OFFSET 0 0.8456443600000344 0
            CHANNELS 3 Yrotation Xrotation Zrotation
            JOINT leftEye
            {
              OFFSET 0.30408573140000006 0.5104519199999995 0.1276382305
              CHANNELS 3 Yrotation Xrotation Zrotation
              End Site
              {
                OFFSET 0.30408573140000006 0.5104519199999995 0.1276382305
              }
            }
            JOINT rightEye
            {
              OFFSET -0.30409491089999996 0.5104519199999995 0.1276379445
              CHANNELS 3 Yrotation Xrotation Zrotation
              End Site
              {
                OFFSET -0.30409491089999996 0.5104519199999995 0.1276379445
              }
            }
            JOINT jaw
            {
              OFFSET -3.155239131000001e-7 -0.11984121820000082 0.60178107
              CHANNELS 3 Yrotation Xrotation Zrotation
              End Site
              {
                OFFSET -3.155239131000001e-7 -0.11984121820000082 0.60178107
              }
            }
          }
        }
        JOINT rightShoulder
        {
          OFFSET -0.1807303465 1.5087829790000005 0
          CHANNELS 3 Yrotation Xrotation Zrotation
          JOINT rightUpperArm
          {
            OFFSET -0.5985063796536958 0 0
            CHANNELS 3 Yrotation Xrotation Zrotation
            JOINT rightLowerArm
            {
              OFFSET -2.2993322059002854 0 0
              CHANNELS 3 Yrotation Xrotation Zrotation
              JOINT rightHand
              {
                OFFSET -2.395045314457259 0 0
                CHANNELS 3 Yrotation Xrotation Zrotation
                JOINT rightIndexProximal
                {
                  OFFSET -0.5764487688300002 0.0441371204405987 0.17361932004999997
                  CHANNELS 3 Yrotation Xrotation Zrotation
                  JOINT rightIndexIntermediate
                  {
                    OFFSET -0.29573011380000047 -0.01934826376999843 -0.007698921482999974
                    CHANNELS 3 Yrotation Xrotation Zrotation
                    JOINT rightIndexDistal
                    {
                      OFFSET -0.19008373999999884 -0.012503266380000655 -0.0026365778999999897
                      CHANNELS 3 Yrotation Xrotation Zrotation
                      End Site
                      {
                        OFFSET -0.19008373999999884 -0.012503266380000655 -0.0026365778999999897
                      }
                    }
                  }
                }
                JOINT rightMiddleProximal
                {
                  OFFSET -0.5834852037300005 0.05211639405060153 0.02307162440000001
                  CHANNELS 3 Yrotation Xrotation Zrotation
                  JOINT rightMiddleIntermediate
                  {
                    OFFSET -0.33880114510000003 -0.019952774050000954 0.0002455003561999819
                    CHANNELS 3 Yrotation Xrotation Zrotation
                    JOINT rightMiddleDistal
                    {
                      OFFSET -0.20675694929999955 -0.012273788999999091 0.00030209124000002766
                      CHANNELS 3 Yrotation Xrotation Zrotation
                      End Site
                      {
                        OFFSET -0.20675694929999955 -0.012273788999999091 0.00030209124000002766
                      }
                    }
                  }
                }
                JOINT rightLittleProximal
                {
                  OFFSET -0.5346811737299992 -0.011214256288399227 -0.24363941305000003
                  CHANNELS 3 Yrotation Xrotation Zrotation
                  JOINT rightLittleIntermediate
                  {
                    OFFSET -0.21757715980000092 -0.011771559690000988 0.01201554387
                    CHANNELS 3 Yrotation Xrotation Zrotation
                    JOINT rightLittleDistal
                    {
                      OFFSET -0.1475201849000004 -0.00822055339600003 0.006082065407000015
                      CHANNELS 3 Yrotation Xrotation Zrotation
                      End Site
                      {
                        OFFSET -0.1475201849000004 -0.00822055339600003 0.006082065407000015
                      }
                    }
                  }
                }
                JOINT rightRingProximal
                {
                  OFFSET -0.5800810755299999 0.027657985680600072 -0.12066365025000003
                  CHANNELS 3 Yrotation Xrotation Zrotation
                  JOINT rightRingIntermediate
                  {
                    OFFSET -0.26166445029999974 -0.013623118409999302 0.011164098990000045
                    CHANNELS 3 Yrotation Xrotation Zrotation
                    JOINT rightRingDistal
                    {
                      OFFSET -0.17666387530000027 -0.009072900100000503 0.005668185599999959
                      CHANNELS 3 Yrotation Xrotation Zrotation
                      End Site
                      {
                        OFFSET -0.17666387530000027 -0.009072900100000503 0.005668185599999959
                      }
                    }
                  }
                }
                JOINT rightThumbProximal
                {
                  OFFSET -0.10997596379000074 -0.09577489355940072 0.16989765924999997
                  CHANNELS 3 Yrotation Xrotation Zrotation
                  JOINT rightThumbIntermediate
                  {
                    OFFSET -0.31036620999999986 -0.08229339117999834 0.15440884469999996
                    CHANNELS 3 Yrotation Xrotation Zrotation
                    JOINT rightThumbDistal
                    {
                      OFFSET -0.21631306399999906 -0.08825326400000111 0.018656797720000014
                      CHANNELS 3 Yrotation Xrotation Zrotation
                      End Site
                      {
                        OFFSET -0.21631306399999906 -0.08825326400000111 0.018656797720000014
                      }
                    }
                  }
                }
              }
            }
          }
        }
      }
    }
  }
}
MOTION
Frames: 8
Frame Time: 0.03333333333333333
0.09432163268963717 -10.23284665947574 -1.2407127877106081 -90.00243755469731 -40.000634969357264 89.99971150230517 114.44448819361578 -59.46015883566939 -67.94847874628613 17.346893614924596 75.08112255295448 27.416914304850653 -20.508366169050724 42.14631459729158 -7.198077532048691 0 0 0 15.295342458440194 -76.5124815545104 -44.28270870703992 -13.642313366280867 66.32840994688793 -17.500130106626518 4.778326227399027 14.642133596824825 11.728200556784182 0 0 0 -7.074256946774063 23.830592992530775 -19.845609082668652 -14.243032517557458 -2.9845338749602615 -9.687625266195678 0 0 0 -15.195840977724153 -1.7720571545309682 -9.713289086561707 64.03439428188334 -35.18248026226617 -103.04501339890334 -1.5258665381310268 65.0389171621652 -16.90738465393368 50.460978053436754 30.73595948461399 -21.613594134469253 0 0 0 0 0 0 0 0 0 0 0 0 0 0 0 0 0 0 0 0 0 0 0 0 0 0 0 0 0 0 0 0 0 0 0 0 0 0 0 0 0 0 0 0 0 -17.312944058189075 -7.006363529075664 -5.725843379443126 29.902520468116787 -16.303645321023428 3.6707135166133322 0 0 0 0 0 0 0 0 0 -63.467062011278976 -7.573785822634387 -10.754566716389565 34.11281862400577 28.42409813126595 15.799632384723532 54.268821828754454 21.001013297445375 -48.10120672219985 8.665901051813156 2.566746852489309 -2.0699601534001935 0 0 0 0 0 0 0 0 0 0 0 0 0 0 0 0 0 0 0 0 0 0 0 0 0 0 0 0 0 0 0 0 0 0 0 0 0 0 0 0 0 0 0 0 0
0.09432163268963717 -10.23284665947574 -1.2407127877106081 -90.00243755469731 -40.000634969357264 89.99971150230517 114.44448819361578 -59.46015883566939 -67.94847874628613 17.346893614924596 75.08112255295448 27.416914304850653 -20.508366169050724 42.14631459729158 -7.198077532048691 0 0 0 15.295342458440194 -76.5124815545104 -44.28270870703992 -13.642313366280867 66.32840994688793 -17.500130106626518 4.778326227399027 14.642133596824825 11.728200556784182 0 0 0 -7.074256946774063 23.830592992530775 -19.845609082668652 -14.238781081618335 -2.6159991279511225 -9.766365861452739 0 0 0 -15.252740833640717 -1.7816669422418911 -9.579370503481352 64.06579377728696 -35.2840538366879 -103.14885564035279 -1.5258665381310268 65.0389171621652 -16.90738465393368 50.560775567160675 30.68602129963042 -21.91095308222761 0 0 0 0 0 0 0 0 0 0 0 0 0 0 0 0 0 0 0 0 0 0 0 0 0 0 0 0 0 0 0 0 0 0 0 0 0 0 0 0 0 0 0 0 0 -17.536804199164564 -7.061516614883989 -5.527412991275928 29.901709001538503 -16.433433832913867 3.7163805995335077 0 0 0 0 0 0 0 0 0 -63.64996178263816 -7.43797774081563 -10.68071841187289 34.11281862400577 28.42409813126595 15.799632384723532 54.268821828754454 21.001013297445375 -48.10120672219985 8.617105040302341 2.4246322378188876 -2.4078195413050754 0 0 0 0 0 0 0 0 0 0 0 0 0 0 0 0 0 0 0 0 0 0 0 0 0 0 0 0 0 0 0 0 0 0 0 0 0 0 0 0 0 0 0 0 0
0.09432163268963717 -10.23284665947574 -1.2407127877106081 -90.00243755469731 -40.000634969357264 89.99971150230517 114.44448819361578 -59.46015883566939 -67.94847874628613 17.346893614924596 75.08112255295448 27.416914304850653 -20.508366169050724 42.14631459729158 -7.198077532048691 0 0 0 15.295342458440194 -76.5124815545104 -44.28270870703992 -13.642313366280867 66.32840994688793 -17.500130106626518 4.778326227399027 14.642133596824825 11.728200556784182 0 0 0 -7.074256946774063 23.830592992530775 -19.845609082668652 -14.235033692456872 -2.2471702197221 -9.845120191579545 0 0 0 -15.30967229182554 -1.791144700800639 -9.44542701756647 64.09745943092071 -35.38558743617222 -103.25290263061758 -1.5258665381310268 65.0389171621652 -16.90738465393368 50.660884382074315 30.636485995390824 -22.208478800757824 0 0 0 0 0 0 0 0 0 0 0 0 0 0 0 0 0 0 0 0 0 0 0 0 0 0 0 0 0 0 0 0 0 0 0 0 0 0 0 0 0 0 0 0 0 -17.760588546758505 -7.115826631605686 -5.32899815305183 29.90078673665962 -16.56318085314205 3.7620664028219295 0 0 0 0 0 0 0 0 0 -63.832676095438146 -7.301894052933763 -10.607308375604818 34.11281862400577 28.42409813126595 15.799632384723532 54.268821828754454 21.001013297445375 -48.10120672219985 8.569118719964509 2.2821277510333693 -2.7457760940401217 0 0 0 0 0 0 0 0 0 0 0 0 0 0 0 0 0 0 0 0 0 0 0 0 0 0 0 0 0 0 0 0 0 0 0 0 0 0 0 0 0 0 0 0 0
0.09432163268963717 -10.23284665947574 -1.2407127877106081 -90.00243755469731 -40.000634969357264 89.99971150230517 114.44448819361578 -59.46015883566939 -67.94847874628613 17.346893614924596 75.08112255295448 27.416914304850653 -20.508366169050724 42.14631459729158 -7.198077532048691 0 0 0 15.295342458440194 -76.5124815545104 -44.28270870703992 -13.642313366280867 66.32840994688793 -17.500130106626518 4.778326227399027 14.642133596824825 11.728200556784182 0 0 0 -7.074256946774063 23.830592992530775 -19.845609082668652 -14.231794502409809 -1.8783364336480601 -9.923830811431127 0 0 0 -15.366624615796477 -1.8004893606789134 -9.311473917846095 64.12938878626906 -35.48707703504227 -103.35714927159619 -1.5258665381310268 65.0389171621652 -16.90738465393368 50.76124051659054 30.587392586883876 -22.50595171264831 0 0 0 0 0 0 0 0 0 0 0 0 0 0 0 0 0 0 0 0 0 0 0 0 0 0 0 0 0 0 0 0 0 0 0 0 0 0 0 0 0 0 0 0 0 -17.984588250780646 -7.169366902745569 -5.130347474174679 29.899757455017625 -16.692927965625078 3.8077855018107467 0 0 0 0 0 0 0 0 0 -64.01515745071877 -7.16557942150034 -10.534358015679382 34.11281862400577 28.42409813126595 15.799632384723532 54.268821828754454 21.001013297445375 -48.10120672219985 8.521977969411502 2.139342843867784 -3.0835805930519102 0 0 0 0 0 0 0 0 0 0 0 0 0 0 0 0 0 0 0 0 0 0 0 0 0 0 0 0 0 0 0 0 0 0 0 0 0 0 0 0 0 0 0 0 0
0.09432163268963717 -10.23284665947574 -1.2407127877106081 -90.00243755469731 -40.000634969357264 89.99971150230517 114.44448513442887 -59.46015883566939 -67.94847748465514 17.346893614924596 75.08112255295448 27.416914304850653 -20.508366169050724 42.14631459729158 -7.198077532048691 0 0 0 15.295342458440194 -76.5124815545104 -44.28270870703992 -13.642313366280867 66.32840994688793 -17.500130106626518 4.778326227399027 14.642133596824825 11.728200556784182 0 0 0 -7.074256946774063 23.830592992530775 -19.845609082668652 -14.229915971551511 -1.632274101074759 -9.976320898407725 0 0 0 -15.404610387190736 -1.806645984212804 -9.222157022445087 64.15082299910172 -35.55471566296728 -103.42676151638868 -1.5258665381310268 65.0389171621652 -16.90738465393368 50.828329689530285 30.554903507992005 -22.704367344332045 0 0 0 0 0 0 0 0 0 0 0 0 0 0 0 0 0 0 0 0 0 0 0 0 0 0 0 0 0 0 0 0 0 0 0 0 0 0 0 0 0 0 0 0 0 -18.13384090273879 -7.204586868604316 -4.9979618720415715 29.89901014374164 -16.779400064901818 3.8382735910404406 0 0 0 0 0 0 0 0 0 -64.13672124556767 -7.074551622701443 -10.485966837000802 34.11281862400577 28.42409813126595 15.799632384723532 54.268821828754454 21.001013297445375 -48.10120672219985 8.491001175694347 2.0439358016273816 -3.308849194653042 0 0 0 0 0 0 0 0 0 0 0 0 0 0 0 0 0 0 0 0 0 0 0 0 0 0 0 0 0 0 0 0 0 0 0 0 0 0 0 0 0 0 0 0 0
0.09432163268963717 -10.23284665947574 -1.2407127877106081 -90.00243755469731 -40.000634969357264 89.99971150230517 114.44448207524182 -59.46015883566939 -67.94847592736525 17.346893614924596 75.08112255295448 27.416914304850653 -20.508366169050724 42.14631459729158 -7.198077532048691 0 0 0 15.295342458440194 -76.5124815545104 -44.28270870703992 -13.642313366280867 66.32840994688793 -17.500130106626518 4.778326227399027 14.642133596824825 11.728200556784182 0 0 0 -7.074256946774063 23.830592992530775 -19.845609082668652 -14.228262677588184 -1.3862099590266175 -10.028797084974178 0 0 0 -15.442603675920616 -1.8127432616339973 -9.132836137248253 64.17237321737511 -35.622335786945946 -103.49646425502193 -1.5258665381310268 65.0389171621652 -16.90738465393368 50.895525726323065 30.522615594626572 -22.902760077896804 0 0 0 0 0 0 0 0 0 0 0 0 0 0 0 0 0 0 0 0 0 0 0 0 0 0 0 0 0 0 0 0 0 0 0 0 0 0 0 0 0 0 0 0 0 -18.28318654889014 -7.23946445688256 -4.86547463009671 29.898217139886533 -16.865870494114738 3.868776981313927 0 0 0 0 0 0 0 0 0 -64.25818334699595 -6.983422206875003 -10.437779704949557 34.11281862400577 28.42409813126595 15.799632384723532 54.268821828754454 21.001013297445375 -48.10120672219985 8.460401015592526 1.9484077836806155 -3.5340535292452504 0 0 0 0 0 0 0 0 0 0 0 0 0 0 0 0 0 0 0 0 0 0 0 0 0 0 0 0 0 0 0 0 0 0 0 0 0 0 0 0 0 0 0 0 0
0.09432163268963717 -10.23284665947574 -1.2407127877106081 -90.00243755469731 -40.000634969357264 89.99971150230517 114.4444790160546 -59.46015883566939 -67.94847466573407 17.346893614924596 75.08112255295448 27.416914304850653 -20.508366169050724 42.14631459729158 -7.198077532048691 0 0 0 15.295342458440194 -76.5124815545104 -44.28270870703992 -13.642313366280867 66.32840994688793 -17.500130106626518 4.778326227399027 14.642133596824825 11.728200556784182 0 0 0 -7.074256946774063 23.830592992530775 -19.845609082668652 -14.226836131825275 -1.1401444873495106 -10.081260637173171 0 0 0 -15.480608528364488 -1.818781405963923 -9.043511046244445 64.19404548805367 -35.68992904470317 -103.56625703291942 -1.5258665381310268 65.0389171621652 -16.90738465393368 50.962829093627654 30.490524672854637 -23.10113065281948 0 0 0 0 0 0 0 0 0 0 0 0 0 0 0 0 0 0 0 0 0 0 0 0 0 0 0 0 0 0 0 0 0 0 0 0 0 0 0 0 0 0 0 0 0 -18.432626060869953 -7.2739987405668325 -4.732885296106098 29.89737504821261 -16.952341233176938 3.8992954666997472 0 0 0 0 0 0 0 0 0 -64.3795437598323 -6.892191863310276 -10.389796978938497 34.11281862400577 28.42409813126595 15.799632384723532 54.268821828754454 21.001013297445375 -48.10120672219985 8.43017835371785 1.852760254027572 -3.7591940331868003 0 0 0 0 0 0 0 0 0 0 0 0 0 0 0 0 0 0 0 0 0 0 0 0 0 0 0 0 0 0 0 0 0 0 0 0 0 0 0 0 0 0 0 0 0
0.09432163268963717 -10.23284665947574 -1.2407127877106081 -90.00243755469731 -40.000634969357264 89.99971150230517 114.44448360483537 -59.46015883566939 -67.94847748465514 17.346893614924596 75.08112255295448 27.416914304850653 -20.508366169050724 42.14631459729158 -7.198077532048691 0 0 0 15.295342458440194 -76.5124815545104 -44.28270870703992 -13.642313366280867 66.32840994688793 -17.500130106626518 4.778326227399027 14.642133596824825 11.728200556784182 0 0 0 -7.074256946774063 23.830592992530775 -19.845609082668652 -14.225115015718782 -0.7708183705223699 -10.159985748374128 0 0 0 -15.537636917247115 -1.827728787829725 -8.909502918631377 64.22679794106591 -35.791291769716395 -103.67113846590141 -1.5258665381310268 65.0389171621652 -16.90738465393368 51.06403539232091 30.44272897795026 -23.398814148005943 0 0 0 0 0 0 0 0 0 0 0 0 0 0 0 0 0 0 0 0 0 0 0 0 0 0 0 0 0 0 0 0 0 0 0 0 0 0 0 0 0 0 0 0 0 -18.656642510053587 -7.325085093393289 -4.534088838605349 29.89601989490235 -17.082008608550936 3.945088750220809 0 0 0 0 0 0 0 0 0 -64.56145066399365 -6.755127284381481 -10.318188751763005 34.11281862400577 28.42409813126595 15.799632384723532 54.268821828754454 21.001013297445375 -48.10120672219985 8.38552915532976 1.7089854058514322 -4.096984362161952 0 0 0 0 0 0 0 0 0 0 0 0 0 0 0 0 0 0 0 0 0 0 0 0 0 0 0 0 0 0 0 0 0 0 0 0 0 0 0 0 0 0 0 0 0
